<svg xmlns="http://www.w3.org/2000/svg" fill="none" viewBox="-1.2 -1.2 24 24" id="Dark-Mode--Streamline-Outlined-Material" height="24" width="24" style="background-color: #ffffff"><desc>Dark Mode Streamline Icon: https://streamlinehq.com</desc><path fill="#001858" d="M10.8 18.900000000000002c-2.25 0 -4.1625000000000005 -0.7875 -5.7375 -2.3625000000000003S2.7 13.05 2.7 10.8s0.7875 -4.1625000000000005 2.3625000000000003 -5.7375S8.55 2.7 10.8 2.7c0.120015 0 0.24750000000000003 0.0037485000000000005 0.3825 0.011250000000000001 0.135 0.0075015 0.307485 0.0187515 0.5175 0.03375 -0.54 0.4800015 -0.9599850000000001 1.0724985 -1.26 1.7775 -0.300015 0.7050150000000001 -0.45 1.4475149999999999 -0.45 2.2275 0 1.35 0.47250000000000003 2.4975 1.4175 3.4425000000000003 0.9450000000000001 0.9450000000000001 2.0925000000000002 1.4175 3.4425000000000003 1.4175 0.779985 0 1.522485 -0.13873500000000002 2.2275 -0.41625S18.374985000000002 10.53 18.855 10.035c0.014985000000000002 0.18000000000000002 0.026234999999999998 0.32625 0.03375 0.43875S18.900000000000002 10.695015 18.900000000000002 10.8c0 2.25 -0.7875 4.1625000000000005 -2.3625000000000003 5.7375S13.05 18.900000000000002 10.8 18.900000000000002Zm0 -1.35c1.6349850000000001 0 3.06 -0.50625 4.275 -1.51875s1.972485 -2.2012650000000002 2.2725 -3.56625c-0.374985 0.16501500000000002 -0.77751 0.28876500000000005 -1.207575 0.37124999999999997 -0.429885 0.082485 -0.8598600000000001 0.12375000000000001 -1.289925 0.12375000000000001 -1.72035 0 -3.1854150000000003 -0.604935 -4.39515 -1.8148500000000003C9.244935 9.935415 8.64 8.47035 8.64 6.75c0 -0.36000000000000004 0.037485 -0.7462350000000001 0.1125 -1.1587500000000002 0.075015 -0.41251499999999997 0.210015 -0.881235 0.405 -1.40625 -1.470015 0.405 -2.6887499999999998 1.22625 -3.65625 2.46375C4.5337499999999995 7.8862499999999995 4.05 9.270000000000001 4.05 10.8c0 1.8750149999999999 0.656235 3.468735 1.96875 4.78125C7.331264999999999 16.893765 8.924985000000001 17.55 10.8 17.55Z" stroke-width="0.5"></path></svg>